<?xml version="1.0" standalone="no"?>
<!DOCTYPE svg PUBLIC "-//W3C//DTD SVG 20010904//EN"
 "http://www.w3.org/TR/2001/REC-SVG-20010904/DTD/svg10.dtd">
<svg version="1.0" xmlns="http://www.w3.org/2000/svg"
 width="985.000000pt" height="473.000000pt" viewBox="0 0 985.000000 473.000000"
 preserveAspectRatio="xMidYMid meet">

<g transform="translate(0.000000,473.000000) scale(0.100000,-0.100000)"
fill="#000000" stroke="none">
<path d="M6096 3988 c-51 -14 -118 -81 -134 -134 -6 -23 -12 -92 -12 -154 l0
-112 -37 6 c-21 4 -85 16 -143 26 -177 33 -538 82 -950 130 -677 79 -1250 113
-1880 114 -581 0 -853 -17 -1260 -80 -401 -62 -771 -181 -981 -316 -76 -49
-190 -150 -250 -222 -81 -98 -142 -241 -164 -381 -14 -93 -17 -393 -6 -495 66
-564 373 -872 1036 -1039 321 -81 681 -122 1410 -161 412 -22 640 -40 920 -70
824 -91 1459 -247 1576 -389 53 -64 33 -102 -85 -157 -149 -70 -337 -109 -592
-123 -83 -4 -156 -11 -162 -15 -7 -4 -12 -18 -12 -31 0 -28 31 -47 150 -89
276 -100 580 -119 879 -56 204 43 336 105 421 197 104 113 107 267 9 427 -185
300 -590 527 -1074 600 -55 8 -185 24 -290 35 -554 60 -679 74 -885 101 -667
89 -1021 182 -1302 341 -59 33 -134 121 -147 173 -15 63 -14 87 9 149 28 75
77 128 157 170 59 31 196 77 229 77 6 0 19 -64 33 -161 l22 -161 86 -104 c47
-57 89 -104 93 -104 4 0 15 -15 25 -34 30 -55 46 -59 104 -30 57 30 94 27 140
-12 26 -21 37 -41 55 -98 6 -17 11 -16 45 18 31 30 49 39 87 44 55 6 104 -15
124 -54 10 -19 21 -24 49 -24 20 0 45 7 55 15 25 19 89 19 124 1 30 -15 136
-20 430 -17 l182 1 0 118 0 118 -317 104 c-175 57 -320 105 -323 107 -2 2 33
78 78 169 l82 165 103 -6 c485 -29 896 -62 1267 -103 l155 -17 67 -450 c37
-247 69 -465 73 -483 l6 -32 754 0 755 0 0 134 0 134 -470 117 -470 117 0 184
0 184 25 0 c42 0 897 -124 937 -136 14 -4 38 37 128 215 l110 221 1049 0 1048
0 7 98 c4 53 9 127 13 165 l6 67 -1217 0 c-670 0 -1216 4 -1214 8 2 5 21 54
42 110 22 56 43 102 47 102 4 0 22 -43 40 -95 19 -52 37 -95 40 -95 7 0 69
162 69 179 0 7 6 11 13 9 6 -3 27 -46 46 -96 18 -51 37 -90 41 -87 4 3 22 47
41 99 18 52 36 93 40 91 3 -3 21 -45 39 -95 18 -50 36 -93 40 -95 5 -3 22 34
39 82 42 115 47 123 56 92 25 -78 68 -179 75 -172 6 7 21 43 62 156 14 36 22
34 37 -10 7 -21 19 -52 26 -68 8 -17 19 -44 25 -60 12 -30 12 -30 46 54 19 47
34 90 34 97 0 7 4 15 8 18 5 3 26 -40 47 -95 21 -55 40 -97 44 -94 3 4 22 50
43 103 33 88 37 95 46 72 6 -14 20 -50 32 -80 12 -30 26 -66 32 -80 8 -22 13
-15 50 80 47 119 36 123 93 -29 27 -71 28 -73 41 -50 7 13 25 59 40 102 15 42
31 74 34 70 6 -7 27 -57 72 -173 9 -23 12 -18 42 60 18 47 36 94 40 105 8 21
23 -10 70 -138 10 -27 20 -46 23 -44 2 3 22 49 43 103 35 89 40 96 48 74 5
-14 22 -60 38 -102 16 -43 31 -78 34 -78 3 0 20 42 39 93 19 50 37 96 41 100
4 5 21 -31 39 -80 40 -112 48 -124 57 -98 4 11 22 58 40 105 32 85 32 85 44
55 20 -53 41 -109 52 -142 6 -18 14 -33 17 -33 3 0 22 43 41 95 18 52 37 95
40 95 6 0 21 -34 51 -115 12 -33 25 -64 29 -68 4 -5 22 29 39 75 18 45 36 92
40 103 l9 20 7 -20 c53 -140 73 -186 79 -177 3 6 17 39 30 74 14 35 29 76 36
93 l11 30 25 -65 c14 -36 35 -89 46 -117 35 -90 45 -77 117 147 35 110 61 203
57 207 -3 4 -224 18 -490 32 l-484 25 -6 58 c-6 48 -12 61 -38 83 -25 21 -38
25 -62 21 -47 -10 -68 -37 -74 -95 l-5 -51 -42 0 -43 0 -4 65 c-5 80 -31 115
-88 115 -54 0 -80 -33 -86 -106 -3 -32 -7 -60 -9 -62 -2 -2 -304 13 -672 32
-367 20 -676 36 -685 36 -16 0 -18 12 -18 105 0 113 -8 141 -54 184 -38 36
-110 40 -156 9 -54 -36 -70 -78 -70 -185 l0 -93 -64 0 c-35 0 -76 3 -92 6
l-29 6 0 126 c-1 74 -6 142 -13 163 -16 47 -77 105 -131 124 -49 17 -69 17
-125 3z"/>
</g>
</svg>
